<svg id="Layer_1" data-name="Layer 1" xmlns="http://www.w3.org/2000/svg" xmlns:xlink="http://www.w3.org/1999/xlink" viewBox="0 0 1169.98 537.81"><defs><style>.cls-1{fill:none;}.cls-2{clip-path:url(#clip-path);}</style><clipPath id="clip-path" transform="translate(-138.28 -1.27)"><rect class="cls-1" x="87.09" y="-375.26" width="1272.89" height="1272.89"/></clipPath></defs><title>logo</title><g class="cls-2"><g class="cls-2"><path d="M1308.26,1.88,1145.86,208.8,831.67,209l-108-116L614.76,208.64l-315.1.16L138.28,1.68,462.77,97.26,550.15,1.68,897,1.27q43.18,48.3,86.35,96.61l324.91-96" transform="translate(-138.28 -1.27)"/><path d="M952,539.08q-.3-77.54-.61-155.07L810.44,538.77H636.91L495.8,386.27l-.21,152.19L314.23,246.93l300.53-.45q54.47,77.39,108.92,154.76L832,246.48l301.81.45L952,539.08" transform="translate(-138.28 -1.27)"/></g></g></svg>